<?xml version="1.0" encoding="UTF-8"?>
<svg width="200" height="50" viewBox="0 0 200 50" fill="none" xmlns="http://www.w3.org/2000/svg">
  <g fill="#000000">
    <path d="M42 12h18v4H42zM42 22h18v4H42zM42 32h18v4H42z"/>
    <path d="M15 12h20v4H15zM15 22h20v4H15zM15 32h20v4H15z"/>
    <path d="M75 12h18v4H75zM75 22h18v4H75zM75 32h18v4H75z"/>
    <path d="M100 12h18v4h-18zM100 22h18v4h-18zM100 32h18v4h-18z"/>
    <path d="M130 12h18v4h-18zM130 22h18v4h-18zM130 32h18v4h-18z"/>
    <path d="M160 12h18v4h-18zM160 22h18v4h-18zM160 32h18v4h-18z"/>
  </g>
</svg>