<?xml version="1.0" encoding="UTF-8"?>
<svg width="200" height="50" viewBox="0 0 200 50" fill="none" xmlns="http://www.w3.org/2000/svg">
  <path d="M31.4 24.8c0 8.6-7 15.6-15.7 15.6C7 40.4 0 33.4 0 24.8 0 16.2 7 9.2 15.7 9.2c8.7 0 15.7 7 15.7 15.6" fill="#004F9F"/>
  <path d="M72.3 24.8c0 8.6-7 15.6-15.7 15.6s-15.7-7-15.7-15.6c0-8.6 7-15.6 15.7-15.6s15.7 7 15.7 15.6" fill="#004F9F"/>
  <path d="M113.2 24.8c0 8.6-7 15.6-15.7 15.6-8.7 0-15.7-7-15.7-15.6 0-8.6 7-15.6 15.7-15.6 8.7 0 15.7 7 15.7 15.6" fill="#004F9F"/>
  <path d="M154.1 24.8c0 8.6-7 15.6-15.7 15.6s-15.7-7-15.7-15.6c0-8.6 7-15.6 15.7-15.6s15.7 7 15.7 15.6" fill="#004F9F"/>
  <path d="M195 24.8c0 8.6-7 15.6-15.7 15.6s-15.7-7-15.7-15.6c0-8.6 7-15.6 15.7-15.6S195 16.2 195 24.8" fill="#004F9F"/>
</svg>
